#!OML:ASF H:\Terrain\Patient Classification 1\Walking\liu\liu.ASF
:FULLY-SPECIFIED
:DEGREES
48
root 8.73496 16.2923 -22.42 7.09901 -1.71456 -6.75787
lowerback -5.00487 1.82882 4.01391
upperback -1.50039 2.18395 3.3744
thorax 1.27754 1.09571 1.35431
lowerneck -21.9123 -4.69076 -13.8698
upperneck 19.6414 -5.51682 14.5618
head 10.7689 -1.88191 6.80833
rclavicle -4.27884e-014 -5.00937e-014
rhumerus -26.57 27.4878 -85.6535
rradius 44.4934
rwrist -22.0173
rhand -29.6352 -27.6743
rfingers 7.12502
rthumb -2.96519 -57.6335
lclavicle -4.27884e-014 -5.00937e-014
lhumerus -48.9408 16.757 67.2196
lradius 8.56209
lwrist -27.8971
lhand -11.0348 -18.264
lfingers 7.12502
lthumb 14.987 11.1736
rfemur 3.9101 -2.94013 31.36
rtibia 12.5908
rfoot -10.6133 12.2134
rtoes -12.0755
lfemur -39.7127 6.77848 -16.6899
ltibia 23.5126
lfoot -10.5722 8.18448
ltoes -13.3955
49
root 8.74957 16.2872 -22.2175 7.16166 -1.98064 -7.05874
lowerback -5.11965 1.9552 4.31765
upperback -1.35009 2.32007 3.40177
thorax 1.50804 1.16736 1.23027
lowerneck -21.8057 -4.67302 -13.7172
upperneck 19.2188 -5.457 14.3339
head 10.5728 -1.8709 6.68049
rclavicle -2.75193e-014 -2.0276e-014
rhumerus -26.0788 28.2066 -85.5073
rradius 45.7929
rwrist -23.2566
rhand -31.6657 -31.4366
rfingers 7.12502
rthumb -4.92594 -61.3593
lclavicle -2.75193e-014 -2.0276e-014
lhumerus -49.4226 16.6457 66.8607
lradius 8.00694
lwrist -27.2102
lhand -11.3795 -17.8954
lfingers 7.12502
lthumb 14.6548 11.5667
rfemur 5.29246 -2.96385 31.4227
rtibia 11.2417
rfoot -9.70078 12.593
rtoes -11.0611
lfemur -39.7097 5.36197 -15.4366
ltibia 21.2551
lfoot -10.9562 8.28401
ltoes -12.3366
50
root 8.76409 16.2768 -22.0127 7.23263 -2.17937 -7.03321
lowerback -5.26144 2.0144 4.28114
upperback -1.26963 2.3869 3.37802
thorax 1.67054 1.20298 1.23819
lowerneck -21.7427 -4.60343 -13.8004
upperneck 19.0846 -5.3385 14.3888
head 10.4972 -1.81849 6.72861
rclavicle -7.60351e-015 -1.82882e-014
rhumerus -25.3782 28.1538 -85
rradius 46.0009
rwrist -22.4143
rhand -29.6262 -27.7283
rfingers 7.12502
rthumb -2.95649 -57.6876
lclavicle -7.60351e-015 -1.82882e-014
lhumerus -50.0419 16.5644 66.4867
lradius 7.44477
lwrist -26.7622
lhand -11.4156 -17.7046
lfingers 7.12502
lthumb 14.6201 11.7601
rfemur 6.76202 -2.66724 31.2294
rtibia 9.80541
rfoot -9.02827 12.3917
rtoes -13.9469
lfemur -39.8337 3.44155 -14.2652
ltibia 19.3572
lfoot -10.8347 8.91857
ltoes -11.2234
51
root 8.77656 16.2657 -21.8096 7.32582 -2.4529 -7.0648
lowerback -5.35255 2.16099 4.29096
upperback -1.25962 2.5744 3.38603
thorax 1.73375 1.29726 1.25819
lowerneck -21.9208 -4.68756 -14.0077
upperneck 19.3609 -5.37756 14.337
head 10.6408 -1.85303 6.75317
rclavicle -2.24005e-014 -1.59028e-014
rhumerus -25.03 28.1113 -84.5552
rradius 46.517
rwrist -22.2798
rhand -29.1068 -25.6246
rfingers 7.12502
rthumb -2.45483 -55.5902
lclavicle -2.24005e-014 -1.59028e-014
lhumerus -50.9445 16.1433 66.0747
lradius 7.3719
lwrist -26.4939
lhand -10.8547 -17.5186
lfingers 7.12502
lthumb 15.1604 11.906
rfemur 8.28131 -2.27652 31.063
rtibia 8.13867
rfoot -8.18864 12.1892
rtoes -16.0049
lfemur -40.1747 1.66427 -13.04
ltibia 17.9405
lfoot -10.9009 10.0767
ltoes -12.6171
52
root 8.78671 16.2505 -21.6066 7.44539 -2.79357 -7.36144
lowerback -5.4118 2.32409 4.49551
upperback -1.10707 2.76693 3.40515
thorax 1.93494 1.39739 1.18541
lowerneck -22.7193 -4.81962 -13.7662
upperneck 19.7203 -5.50909 14.072
head 10.9268 -1.89894 6.60928
rclavicle -1.41386e-014 1.59028e-015
rhumerus -24.3452 28.1369 -84.1806
rradius 46.9291
rwrist -22.4582
rhand -28.5208 -22.9495
rfingers 7.12502
rthumb -1.8889 -52.9209
lclavicle -1.41386e-014 1.59028e-015
lhumerus -51.4253 15.8928 65.6306
lradius 7.2203
lwrist -26.239
lhand -10.6612 -17.653
lfingers 7.12502
lthumb 15.3469 11.7575
rfemur 9.62858 -1.78753 31.1878
rtibia 6.61219
rfoot -7.16775 12.032
rtoes -16.0628
lfemur -40.567 2.1664 -12.8731
ltibia 16.7939
lfoot -10.6872 9.38016
ltoes -15.91
53
root 8.79457 16.2461 -21.4024 7.53609 -3.04986 -7.59755
lowerback -5.44325 2.49189 4.59264
upperback -0.916728 2.97209 3.40183
thorax 2.15699 1.50431 1.15109
lowerneck -23.1492 -4.90771 -13.5895
upperneck 19.513 -5.61733 14.0628
head 10.9441 -1.92015 6.5502
rclavicle -7.60351e-015 -1.19271e-014
rhumerus -23.4668 28.0773 -83.8222
rradius 47.5424
rwrist -22.6056
rhand -29.1013 -25.8162
rfingers 7.12502
rthumb -2.44957 -55.7819
lclavicle -7.60351e-015 -1.19271e-014
lhumerus -51.6372 15.6831 65.3604
lradius 6.9235
lwrist -26.0415
lhand -10.8205 -17.981
lfingers 7.12502
lthumb 15.1934 11.4412
rfemur 11.265 -1.39754 31.3254
rtibia 4.57897
rfoot -5.6948 11.7527
rtoes -15.4637
lfemur -40.7911 2.60123 -12.7234
ltibia 16.156
lfoot -11.1228 8.50725
ltoes -13.0656
